<?xml version="1.0" encoding="UTF-8"?>
<svg width="296" height="120" data-name="Calque 1" version="1.1" viewBox="-50 -50 2296.7 931.4" xmlns="http://www.w3.org/2000/svg">
 <defs>
  <style>.cls-1 {
        fill: #ed9b27;
      }

      .cls-1, .cls-2 {
        stroke-width: 0px;
      }

      .cls-2 {
        fill: #00386e;
      }</style>
 </defs>
 <g transform="translate(-278.04 -152.84)">
  <path class="cls-1" d="m1338.3 289.56 0.19 30.94c7.13-2.01 14.73-3.59 22.34-4.54v-37.98c0-9.37 5.98-17.5 15.54-17.5s15.55 8.13 15.55 17.5v37.98c7.6 0.95 15.16 2.53 22.28 4.54l0.19-30.94c0-9.28 4.55-14.06 11.43-14.06 2.1 0 4.11 0.43 4.11 0.43v-13.82c-7.98-6.6-32.57-24.68-40.6-72.83h-25.92c-8.08 48.16-32.67 66.24-40.6 72.83v13.82s1.96-0.43 4.11-0.43c6.84 0 11.39 4.78 11.39 14.06z"/>
  <circle class="cls-1" transform="rotate(-85.93 1376.5 165.97)" cx="1376.4" cy="166.02" r="13.2"/>
  <polygon class="cls-1" points="1376.4 483.7 1123.6 598.08 1124.7 603.51 1628 603.51 1629.2 598.08"/>
  <path class="cls-1" d="m1563.9 545.41c-2.73-60.16-34.58-112.86-82.06-144.66-14.06-9.38-29.51-16.98-45.91-22.38v-35.25c-15.92-7.94-38.78-13.54-59.49-13.68-20.75 0.14-43.62 5.74-59.54 13.68v35.25c-12.77 4.16-24.92 9.71-36.34 16.4-52.71 30.89-88.71 86.51-91.58 150.64l187.47-85.7 187.47 85.7z"/>
  <path class="cls-1" d="m735.25 953.82c0 12.49-5.67 18.04-15.73 18.04-11.22 0-16.42-6.71-16.42-18.62v-43.03h-14.11v44.88c0 18.86 11.56 29.15 30.07 29.15s30.19-10.76 30.19-30.42v-43.61h-14z"/>
  <polygon class="cls-1" points="802.11 929.99 836.69 982.5 851.73 982.5 851.73 910.21 838.32 910.21 838.32 962.84 804.07 910.21 788.69 910.21 788.69 982.5 802.11 982.5"/>
  <rect class="cls-1" x="891.75" y="910.21" width="14" height="72.29"/>
  <polygon class="cls-1" points="980.47 982.5 1006.4 910.21 991.81 910.21 972.03 968.28 952.25 910.21 937.67 910.21 963.35 982.5"/>
  <polygon class="cls-1" points="1087.5 982.5 1087.5 970.59 1052.1 970.59 1052.1 952.2 1081.1 952.2 1081.1 940.28 1052.1 940.28 1052.1 922.12 1087.5 922.12 1087.5 910.21 1038.2 910.21 1038.2 982.5"/>
  <path class="cls-1" d="m1177.6 932.18c0-13.3-9.72-21.97-28-21.97h-25.33v72.29h14.11v-25.79l10.41-0.7 16.08 26.49h16.08l-18.97-29.5c9.83-3.35 15.62-10.53 15.62-20.82zm-28.81 13.2-10.53 0.23v-23.6h9.14c10.06 0 15.73 3.59 15.73 11.11s-5.67 11.8-14.34 12.26z"/>
  <path class="cls-1" d="m1242.1 939.94c-9.95-2.66-16.43-4.98-16.43-10.88 0-4.98 3.7-8.56 12.14-8.56 6.82 0 14.92 2.42 21.28 6.24l3.47-11.91c-6.94-3.93-15.04-6.36-24.87-6.36-16.08 0-25.91 8.56-25.91 21.4 0 14.23 12.03 18.86 22.44 21.75 10.64 2.89 16.08 5.09 16.08 11.1s-5.55 9.6-13.42 9.6c-8.67 0-16.31-2.89-23.02-6.94l-3.24 12.14c6.82 4.17 16.43 6.71 26.02 6.71 17 0 27.53-9.37 27.53-22.56s-11.22-18.74-22.1-21.74z"/>
  <rect class="cls-1" x="1300.5" y="910.21" width="14" height="72.29"/>
  <polygon class="cls-1" points="1372.8 922.59 1372.8 982.5 1386.8 982.5 1386.8 922.59 1411 922.59 1411 910.21 1348.6 910.21 1348.6 922.59"/>
  <polygon class="cls-1" points="1487.8 952.2 1487.8 940.28 1458.8 940.28 1458.8 922.13 1494.2 922.13 1494.2 910.21 1473.8 910.21 1486 896.01 1471.3 896.01 1464 910.21 1444.9 910.21 1444.9 982.5 1494.2 982.5 1494.2 970.59 1458.8 970.59 1458.8 952.2"/>
  <path class="cls-1" d="m1602.7 910.21h-23.36v72.29h14.11v-22.44l8.21-0.11c19.43-0.11 30.88-8.91 30.88-25.56 0-14.11-9.83-24.18-29.85-24.18zm-0.46 37.94-9.03 0.24v-26.37h8.56c11.11 0 16.66 4.39 16.66 12.84s-5.43 13.07-16.19 13.3z"/>
  <path class="cls-1" d="m1682.2 910.21-26.37 72.29h14.23l5.9-17.12h29.15l6.02 17.12h14.22l-26.02-72.29h-17.12zm-2.54 43.49 10.99-31.34 10.87 31.34h-21.87z"/>
  <path class="cls-1" d="m1810.6 932.18c0-13.3-9.72-21.97-27.99-21.97h-25.33v72.29h14.11v-25.79l10.41-0.7 16.08 26.49h16.08l-18.97-29.5c9.83-3.35 15.62-10.53 15.62-20.82zm-28.8 13.2-10.53 0.23v-23.6h9.14c10.06 0 15.73 3.59 15.73 11.11s-5.67 11.8-14.34 12.26z"/>
  <rect class="cls-1" x="1847.9" y="910.21" width="14" height="72.29"/>
  <path class="cls-1" d="m1928.8 939.94c-9.95-2.66-16.43-4.98-16.43-10.88 0-4.98 3.7-8.56 12.14-8.56 6.82 0 14.92 2.42 21.28 6.24l3.47-11.91c-6.94-3.93-15.04-6.36-24.87-6.36-16.08 0-25.91 8.56-25.91 21.4 0 14.23 12.03 18.86 22.44 21.75 10.64 2.89 16.08 5.09 16.08 11.1s-5.55 9.6-13.42 9.6c-8.67 0-16.31-2.89-23.02-6.94l-3.24 12.14c6.82 4.17 16.43 6.71 26.02 6.71 17 0 27.53-9.37 27.53-22.56s-11.22-18.74-22.09-21.74z"/>
  <polygon class="cls-1" points="2033.1 970.59 2014.5 970.59 2014.5 982.5 2063.8 982.5 2063.8 970.59 2046.4 970.59 2046.4 909.51 2015.5 916.92 2015.8 928.6 2033.1 924.43"/>
  <path class="cls-2" d="m603.01 704.45c11.67 0.65 16.31 4.78 16.31 14.36l0.11 69.65-67.36-92.14h-41.71v1.98l16.72 20.55v91.63c0 13.9-3.89 17.31-12.74 18.63-7.75-1.71-11.72-7.32-15.01-15.53l-45.22-117.25h-16.33l-45.55 112.76c-2.94 8.08-6.41 19.05-23.29 20.49v7.92h50v-7.92c-9.76-0.52-17.94-5.08-14.36-14.33l7.81-20.09h48.62l8.56 23.36c2.49 7.2-2.42 9.15-13.9 11.06l-0.02 7.92h54.7 47.84v-7.93c-11.68-1.03-16.72-3.25-16.72-19.08 0 0-0.01-53.95 0-80.03l78.53 107.04h14.01l0.14-118.68c0-9.58 4.4-13.77 16.74-14.36v-8.14h-47.89v8.14zm-185.76 77.84 20.13-50.9 18.8 50.9h-38.94z"/>
  <path class="cls-2" d="m1302.9 704.45c11.67 0.65 16.31 4.77 16.31 14.36l0.11 67.37-67.35-89.87h-41.71v1.98l16.72 20.55v91.65c0 15.83-5.05 18.05-16.72 19.08v7.91h47.84v-7.9c-11.68-1.03-16.72-3.25-16.72-19.08v-80.05l78.53 107.04h14.01l0.14-118.68c0-9.59 4.39-13.77 16.74-14.36v-8.14h-47.89v8.14z"/>
  <path class="cls-2" d="m323.38 810.47-0.03-103.25h14.99c15.07 0 24.86 9.1 24.86 29.88 0 27.07-15.54 30.6-29.64 31.14v9.93h1.07c33.97 0 59.1-15.25 59.1-41.73 0-24.21-21.2-40.14-56.69-40.14h-58.87v8.15c12.22 1.24 16.54 4.07 16.54 19.4v86.6c0 15.83-4.05 17.44-16.67 19.09v7.94h62.23l0.03-7.94c-12.13-0.99-16.92-3.25-16.92-19.09z"/>
  <path class="cls-2" d="m1471.6 756.26c-16.71-10.22-34.8-17.73-34.8-32.89 0-14.27 10.86-18.31 19.6-18.31 15.71 0 26.26 11.08 33.52 27.83h8.73l-3.86-38.36-3.25-1.21c-3.34 3.21-5.98 4.47-9.56 4.47-7.2 0-13.72-4.25-27.19-4.25-22.96 0-47.58 11.02-47.58 36.88s21.85 35.08 40.85 46.83c13.24 8.19 25.74 16.21 25.74 30.3 0 10.66-8.32 21.69-25.55 21.69-14.78 0-25.81-15.01-33.77-35.75h-8.62l3.69 44.32 3.44 1.37c3.07-2.27 6.35-3.54 10.48-3.54 7.94 0 13.15 4.43 29.19 4.43 22.55 0 50.85-10.1 50.85-40.14 0-23.36-14.02-32.71-31.91-43.65z"/>
  <path class="cls-2" d="m661.19 696.31-5.38 37.33 9.31-0.03 8.6-17.02c3.08-6.07 10.18-9.01 17.82-9.01l11.76-0.02-0.04 102.93c0 11.66-1.5 18.34-17.75 19.1v7.91h64.09v-7.91c-16.25-0.75-17.75-7.43-17.75-19.1l-0.04-102.93 11.76 0.02c7.65 0 14.74 2.94 17.82 9.01l8.6 17.02 9.31 0.03-5.38-37.33h-112.72z"/>
  <path class="cls-2" d="m1137.6 694.13c-41.69 0-67.96 27.23-67.99 72.71 0.03 45.47 26.3 72.71 67.99 72.71s67.96-27.23 67.99-72.71c-0.03-45.47-26.3-72.71-67.99-72.71zm0 135.86c-23.64 0-37.63-24.45-37.64-63.16 0.01-38.71 14-63.16 37.64-63.16s37.63 24.44 37.65 63.16c-0.01 38.71-14 63.16-37.65 63.16z"/>
  <path class="cls-2" d="m1583.2 694.13c-41.69 0-67.96 27.23-67.99 72.71 0.03 45.47 26.3 72.71 67.99 72.71s67.96-27.23 67.99-72.71c-0.03-45.47-26.3-72.71-67.99-72.71zm0 135.86c-23.64 0-37.63-24.45-37.65-63.16 0.01-38.71 14-63.16 37.65-63.16s37.63 24.44 37.64 63.16c-0.01 38.71-14 63.16-37.64 63.16z"/>
  <path class="cls-2" d="m1990.6 694.13c-41.69 0-67.96 27.23-67.99 72.71 0.03 45.47 26.3 72.71 67.99 72.71s67.96-27.23 67.99-72.71c-0.03-45.47-26.3-72.71-67.99-72.71zm0 135.86c-23.64 0-37.63-24.45-37.64-63.16 0.01-38.71 14-63.16 37.64-63.16s37.63 24.44 37.65 63.16c-0.01 38.71-14 63.16-37.65 63.16z"/>
  <path class="cls-2" d="m872.56 704.54c12.57 0.81 16.73 5.74 16.73 14.31l0.08 39.32h-59.54l0.09-39.32c0-8.57 4.16-13.5 16.72-14.31v-8.23h-62v8.17c9.73 1.18 16.59 4.2 16.59 14.37v95.52c0 9.15-4.21 13.7-13.74 14.83-0.83 0.1-1.68 0.15-2.76 0.24v8.05h61.64v-7.88c-1.71-0.3-3.27-0.55-4.83-0.86-8.21-1.67-11.48-5.34-11.63-13.81v-43.52h59.37v43.52c-0.14 8.47-3.41 12.14-11.63 13.81-1.55 0.32-3.12 0.56-4.82 0.86v7.88h61.64v-8.05c-1.08-0.09-1.92-0.14-2.76-0.24-9.53-1.14-13.74-5.68-13.74-14.83v-95.52c0-10.16 6.86-13.18 16.59-14.37v-8.17h-62z"/>
  <path class="cls-2" d="m1041.7 819.8c-3.22 4.64-8.15 6.86-14.3 6.86h-22.87c-8.42 0.01-11.47-3.98-11.47-13.9v-41.53h25.72c4.68 0 7.43 3.02 8.6 7.45l2.31 8.74h8.42v-45.74h-8.42l-2.4 9.08c-1.29 4.06-4.15 7.06-8.51 7.34h-25.72v-51.38h27.1c7.28 0.12 13.08 3.47 17.45 9.15l9.18 13.14h8.33l-4.54-32.72h-102.79v8.01c13.88 0.6 16.6 7.27 16.6 19.2v86.96c0 14.67-2.41 16.5-16.54 18.99v8.01h108.18l6.84-35.17h-9.27l-11.89 17.48z"/>
  <polygon class="cls-2" points="1035.9 668.49 1027.7 647.92 1026.2 647.92 983.27 673.62 985.93 680.75 1035.9 669.91"/>
  <path class="cls-2" d="m2155.7 704.45c11.67 0.65 16.31 4.77 16.31 14.36l0.11 69.64-67.35-92.14h-41.71v1.98l16.72 20.59v91.61c0 15.83-5.05 18.05-16.72 19.08v7.92h47.84v-7.91c-11.68-1.03-16.72-3.25-16.72-19.08v-80l78.53 107h14.01l0.14-118.68c0-9.59 4.39-13.77 16.74-14.36v-8.14h-47.89v8.14z"/>
  <path class="cls-2" d="m2302.6 704.45c11.67 0.65 16.31 4.77 16.31 14.36l0.11 69.64-67.35-92.14h-41.71v1.98l16.72 20.59v91.61c0 15.83-5.05 18.05-16.72 19.08v7.91h47.84v-7.9c-11.68-1.03-16.72-3.25-16.72-19.08v-80l78.53 107h14.01l0.14-118.68c0-9.59 4.39-13.77 16.74-14.36v-8.14h-47.89v8.14z"/>
  <path class="cls-2" d="m2465.4 802.32-11.89 17.48c-3.22 4.64-8.15 6.86-14.31 6.86h-22.87c-8.42 0.01-11.46-3.98-11.46-13.9v-41.48h25.71c4.68 0 7.43 3.03 8.61 7.46l2.31 8.74h8.42v-45.74h-8.42l-2.4 9.08c-1.28 4.06-4.15 7.06-8.51 7.35h-25.71l-0.19-51.43h27.1c7.28 0.12 13.08 3.47 17.45 9.15l9.18 13.14h8.33l-4.54-32.72h-102.79v8.01c13.88 0.6 16.6 7.27 16.6 19.2 0 0 0.18 57.69 0.18 86.96 0 14.67-2.41 16.5-16.54 18.99v8.01h108.18l6.84-35.17h-9.27z"/>
  <path class="cls-2" d="m1877.2 763.64c19.97-3.64 27.56-16.32 27.56-29.85 0-29.87-23.83-37.48-59.5-37.48h-55.2v8.25c10.13 0.99 16.33 3.11 16.33 17.29v88.7c0 12.87-2.51 16.5-13.96 18.48-10.07-0.87-12.84-2.83-16.13-8.46l-31.15-49.05c13.73-4.99 28.36-15.87 28.36-36.35 0-24.82-21.14-38.85-56.4-38.85h-60.22v8.15c12.22 1.24 16.54 4.07 16.54 19.4v86.6c0 15.83-4.05 17.44-16.67 19.08v7.94h62.25v-7.94c-12.13-0.99-16.91-3.25-16.91-19.08v-103.6h17.21c11.35 0 23.69 8.54 23.69 28.52 0 24.16-16 32.24-29.27 32.24h-1.43v10.39c2.49 0.2 4.76 1.45 6.06 3.61l29.71 49.7c2.12 3.66 5.72 6.17 11.01 6.17h30.89 62.81c39.7 0 57.52-15.47 57.52-37.49 0-20.86-16.02-32.06-33.09-36.36zm-41.87-56.89h10.63c17.29 0 28.3 6.63 28.3 26.29 0 16.9-7.4 26.12-29.06 26.12h-9.87zm15.43 119.94c-9.53 0-15.64-0.49-15.64-16.28v-41.48h13.1c21.07 0 31.03 8.84 31.03 29.64 0 19.65-9.54 28.12-28.49 28.12z"/>
 </g>
</svg>
